<svg xmlns="http://www.w3.org/2000/svg" data-name="Layer 1" viewBox="0 0 512 512"><path fill="#ffe64e" d="m304.5 269.34-48.24 83.56-.26.44L170.17 502a4.994 4.994 0 0 1-8.57.14l-27.69-44.61a4.982 4.982 0 0 0-4.09-2.36l-52.47-1.67a5 5 0 0 1-4.17-7.5l75.08-130.05 59.24-102.61Z"/><path fill="#ffe64e" d="m434.65 453.5-52.47 1.67a4.982 4.982 0 0 0-4.09 2.36l-27.69 44.61a4.994 4.994 0 0 1-8.57-.14L256 353.34l-.26-.44-48.24-83.56 97-56 59.24 102.61L438.82 446a5 5 0 0 1-4.17 7.5Z"/><path fill="#ffcd85" d="M435.027 178.867c0 18.234-22.398 32.705-27.74 49.158-5.537 17.052 3.886 41.889-6.444 56.082-10.433 14.336-37.035 12.999-51.371 23.432-14.194 10.33-21.084 36.1-38.137 41.637-16.453 5.342-37.1-11.282-55.335-11.282-18.234 0-38.882 16.624-55.335 11.282-17.052-5.537-23.943-31.308-38.137-41.637-14.336-10.433-40.938-9.096-51.37-23.432-10.33-14.193-.908-39.03-6.445-56.081-5.342-16.454-27.74-30.925-27.74-49.16 0-18.233 22.398-32.705 27.74-49.158 5.537-17.052-3.886-41.888 6.444-56.082 10.433-14.336 37.035-12.998 51.371-23.431 14.194-10.33 21.084-36.1 38.137-41.637 16.453-5.343 37.1 11.281 55.335 11.281 18.234 0 38.882-16.624 55.335-11.282 17.052 5.537 23.943 31.308 38.137 41.638 14.336 10.433 40.938 9.095 51.37 23.43 10.33 14.195.908 39.03 6.445 56.083 5.342 16.453 27.74 30.924 27.74 49.159Z"/><path fill="#ffd815" d="M363.74 315.95c-5.3 1.68-10.26 3.67-14.27 6.59-14.19 10.33-21.08 36.1-38.13 41.64-16.38 5.31-36.91-11.13-55.08-11.28a3.423 3.423 0 0 0-.52 0c-18.17.15-38.7 16.59-55.07 11.28-17.06-5.54-23.95-31.31-38.14-41.64-4.01-2.92-8.97-4.91-14.27-6.59l59.24-102.61 48.5 28 48.5-28Z"/><path fill="#f66" d="M435.027 178.867c0 18.234-22.398 32.705-27.74 49.158-5.537 17.052 3.886 41.889-6.444 56.082-10.433 14.336-37.035 12.999-51.371 23.432-14.194 10.33-21.084 36.1-38.137 41.637-16.453 5.342-37.1-11.282-55.335-11.282-18.234 0-38.882 16.624-55.335 11.282-17.052-5.537-23.943-31.308-38.137-41.637-14.336-10.433-40.938-9.096-51.37-23.432-10.33-14.193-.908-39.03-6.445-56.081-5.342-16.454-27.74-30.925-27.74-49.16 0-18.233 22.398-32.705 27.74-49.158 5.537-17.052-3.886-41.888 6.444-56.082 10.433-14.336 37.035-12.998 51.371-23.431 14.194-10.33 21.084-36.1 38.137-41.637 16.453-5.343 37.1 11.281 55.335 11.281 18.234 0 38.882-16.624 55.335-11.282 17.052 5.537 23.943 31.308 38.137 41.638 14.336 10.433 40.938 9.095 51.37 23.43 10.33 14.195.908 39.03 6.445 56.083 5.342 16.453 27.74 30.924 27.74 49.159Z"/><path fill="#ff4e4e" d="M318.469 239.517H215.257a10.37 10.37 0 0 1-9.611-6.474l-28.486-70.266 53.899 28.62a5.185 5.185 0 0 0 7.07-2.262l28.734-57.468 28.734 57.468a5.185 5.185 0 0 0 7.07 2.261l53.898-28.619-28.486 70.266a10.37 10.37 0 0 1-9.61 6.474Z"/><circle cx="267.327" cy="113.499" r="18" fill="#ff4e4e"/><circle cx="367.827" cy="151.999" r="15.5" fill="#ff4e4e"/><circle cx="165.827" cy="151.999" r="15.5" fill="#ff4e4e"/><path fill="#ffe64e" d="M307.641 239.517H204.43a10.37 10.37 0 0 1-9.61-6.474l-28.486-70.266 53.898 28.62a5.185 5.185 0 0 0 7.07-2.262l28.734-57.468 28.735 57.468a5.185 5.185 0 0 0 7.069 2.261l53.899-28.619-28.486 70.266a10.37 10.37 0 0 1-9.61 6.474Z"/><path fill="#ffdf1f" d="M269.77 189.135a5.185 5.185 0 0 0 7.069 2.261l7.16-3.802-27.964-55.927-7.5 15zm56.853-16.208-24.371 60.116a10.37 10.37 0 0 1-9.61 6.474h15a10.37 10.37 0 0 0 9.61-6.474l28.486-70.266zm-121.392 18.47a5.185 5.185 0 0 0 7.07-2.262l.77-1.54-46.738-24.818 4.114 10.15z"/><path fill="#ff4e4e" d="M323.17 278.128H205.985a7.5 7.5 0 0 1 0-15h117.183a7.5 7.5 0 0 1 0 15Z"/><path fill="#ffe64e" d="M314.627 278.128H197.443a7.5 7.5 0 1 1 0-15h117.184a7.5 7.5 0 0 1 0 15Z"/><circle cx="256.5" cy="113.499" r="18" fill="#ffe64e"/><path fill="#ffdf1f" d="M256.5 95.5a17.94 17.94 0 0 0-5.8.972 17.982 17.982 0 0 1 0 34.054 17.995 17.995 0 1 0 5.8-35.027Z"/><circle cx="357" cy="151.999" r="15.5" fill="#ffe64e"/><path fill="#ffdf1f" d="M357 136.5a15.438 15.438 0 0 0-5.193.91 15.48 15.48 0 0 1 0 29.179 15.494 15.494 0 1 0 5.193-30.09Z"/><circle cx="155" cy="151.999" r="15.5" fill="#ffe64e"/><path fill="#ffdf1f" d="M155 136.5a15.44 15.44 0 0 0-5.164.9 15.48 15.48 0 0 1 0 29.2A15.494 15.494 0 1 0 155 136.5Z"/></svg>